<svg height="512" viewBox="0 0 60 61" width="512" xmlns="http://www.w3.org/2000/svg"><g id="036---Pizza-Cutter" transform="translate(-1)"><path id="Shape" d="m27.08 42.32c-.6925898 6.9781802 2.970671 13.6655839 9.224074 16.838852 6.2534029 3.1732682 13.8136007 2.1811704 19.0365434-2.4980976 5.2229427-4.6792679 7.036758-12.0854088 4.5671786-18.6486288-2.4695793-6.56322-8.7157368-10.93659-15.727796-11.0121256-1.0908701-1.148829-2.2531819-2.2276414-3.48-3.23 2.36-1.45 3.43-2.94 3.41-5.37-.0133995-.5007259-.2758572-.9617196-.6996054-1.2288215-.4237482-.267102-.9528592-.3050592-1.4103946-.1011785-1.61.76-5.68 2.24-8.87-.55-7.28-6.34-13.51-11.37-21.98-14.79-2-.82-5-1.63-7.75.78-1.47627136 1.2482688-2.34944765 3.06738607-2.4 5-.07 3.6 3.13 5.36 5.54 6.37l1.13.47c12.14 5.03 18.33 7.78 17.94 11.48-.34 3.42-1 5.49-.54 7.22.1772809.585049.6918658 1.003982 1.3007101 1.0589318.6088443.0549499 1.1901225-.2650785 1.4692899-.8089318 1.0916653-2.0461846 2.6379477-3.8148307 4.52-5.17.8297712.4659926 1.6074992 1.0191182 2.32 1.65-4.3049186 2.8102176-7.1007399 7.4233227-7.6 12.54zm-.14-11.42c.09-.89.48-3 .66-4.87.43-4.33-4.66-6.92-7.4-8.31-11.47-5.83-17.28-6.13-17.2-10.21.04684021-1.36390101.67683314-2.64209474 1.73-3.51 1.68-1.49 3.57-1.26 5.67-.41 8.18 3.29 14.2 8.16 21.38 14.41 3.63 3.17 8 2.1 10.28 1.17-.25 1.72-1.68 2.83-7.27 5.24-3.1926605 1.3530256-5.9209142 3.6086136-7.85 6.49zm7.31-4c1.42-.76 2.26-1 4.54-2.11.9605601.7375901 1.8786892 1.5288505 2.75 2.37-1.7385312.2529541-3.4260733.7794672-5 1.56-.7128224-.6586112-1.4787522-1.2573073-2.29-1.79zm11.23 2.14c8.2395406.8169202 14.2587917 8.1555696 13.4479659 16.3957122-.8108257 8.2401426-8.1450211 14.2648199-16.3857612 13.460089-8.24074-.8047308-14.2708402-8.1344682-13.4722047-16.3758012.3917073-3.9600224 2.3409077-7.6021121 5.4185795-10.1246402s7.0315644-3.7187443 10.9914205-3.3253598z"/><path id="Shape" d="m47.17 47.87c1.7346627-1.4422696 2.2886884-3.8674962 1.3523664-5.9199332s-3.1310569-3.2236786-5.3573073-2.8589792c-2.2262504.3646995-3.9325555 2.175001-4.1650591 4.4189124-.2095027 2.021928.8259495 3.9694392 2.6193118 4.9264845 1.7933624.9570453 3.9876304.7331057 5.5506882-.5664845zm-6.17-4.17c.1726965-1.6439041 1.6425971-2.8383925 3.2870677-2.6711767 1.6444706.1672157 2.8438521 1.6331265 2.6821189 3.2781453-.1617332 1.6450189-1.6236378 2.8492802-3.2691866 2.6930314-.7972627-.075702-1.5311626-.4670308-2.0382902-1.0868535-.5071277-.6198226-.7453806-1.4166807-.6617098-2.2131465z"/><path id="Shape" d="m38.47 55.76c2.6947789 1.273986 5.7469655 1.5777916 8.64.86.5357162-.1353098.8603097-.6792838.725-1.215-.1353098-.5357162-.6792838-.8603097-1.215-.725-2.4363573.6124181-5.0089392.3724516-7.29-.68-.3253853-.18509-.7268982-.172946-1.0405027.0314706-.3136044.2044166-.4867761.5668689-.4487665.9392789.0380095.37241.2808342.6924041.6292692.8292505z"/><path id="Shape" d="m41.38 33.32c2.4408914-.5999447 5.0136312-.345847 7.29.72.3266889.195009.7357365.1877402 1.0552906-.0187527.3195541-.2064928.4942477-.576432.4506869-.9543958-.0435607-.3779637-.2978282-.6984647-.6559775-.8268515-2.6914297-1.2732499-5.7402302-1.5770701-8.63-.86-.3465476.0875301-.6200741.3532921-.7175447.6971762-.0974705.3438841-.004077.713646.245.97.2490771.2563541.6159971.3603539.9625447.2728238z"/><path id="Shape" d="m52.65 35.62c.4261375-.350531.4878205-.9799813.1378366-1.4065683s-.9793544-.4890777-1.4063903-.1396416c-.4270358.3494361-.4903341.978726-.1414463 1.4062099.1681158.2059883.4113435.3365453.6759261.3628159s.5287344-.0539083.7340739-.2228159z"/></g></svg>